<?xml version="1.0" encoding="UTF-8" standalone="no"?><!DOCTYPE svg PUBLIC "-//W3C//DTD SVG 1.1//EN" "http://www.w3.org/Graphics/SVG/1.1/DTD/svg11.dtd"><svg width="100%" height="100%" viewBox="0 0 15 96" version="1.1" xmlns="http://www.w3.org/2000/svg" xmlns:xlink="http://www.w3.org/1999/xlink" xml:space="preserve" xmlns:serif="http://www.serif.com/" style="fill-rule:evenodd;clip-rule:evenodd;stroke-linejoin:round;stroke-miterlimit:1.41421;"><g id="felt_pen"><path d="M15,16.828c0,-0.053 -0.021,-0.104 -0.059,-0.142c-0.037,-0.037 -0.088,-0.058 -0.141,-0.058c-1.647,0 -12.953,0 -14.6,0c-0.053,0 -0.104,0.021 -0.141,0.058c-0.038,0.038 -0.059,0.089 -0.059,0.142c0,4.246 0,74.726 0,78.972c0,0.053 0.021,0.104 0.059,0.141c0.037,0.038 0.088,0.059 0.141,0.059c1.647,0 12.953,0 14.6,0c0.053,0 0.104,-0.021 0.141,-0.059c0.038,-0.037 0.059,-0.088 0.059,-0.141c0,-4.246 0,-74.726 0,-78.972Z"/><path d="M10.804,6c0.109,0 0.198,0.086 0.201,0.195c0.009,0.486 0.029,1.852 -0.005,3.805c-0.043,2.468 3,6.628 3,6.628l-13,0c0,0 2.975,-4.16 3,-6.628c0.02,-1.942 0.009,-3.305 0.003,-3.797c-0.001,-0.054 0.02,-0.105 0.057,-0.143c0.038,-0.038 0.089,-0.06 0.143,-0.06c1.021,0 5.597,0 6.601,0Z" style="fill:#ccc;"/><path d="M5,6c0,0 0.016,-6 2.5,-6c2.484,0 2.5,6 2.5,6"/></g></svg>