<?xml version="1.0" encoding="UTF-8" standalone="no"?><!DOCTYPE svg PUBLIC "-//W3C//DTD SVG 1.1//EN" "http://www.w3.org/Graphics/SVG/1.1/DTD/svg11.dtd"><svg width="100%" height="100%" viewBox="0 0 20 96" version="1.1" xmlns="http://www.w3.org/2000/svg" xmlns:xlink="http://www.w3.org/1999/xlink" xml:space="preserve" xmlns:serif="http://www.serif.com/" style="fill-rule:evenodd;clip-rule:evenodd;stroke-linejoin:round;stroke-miterlimit:1.41421;"><g id="fluorescent_pen"><path d="M20,16.828c0,-0.111 -0.09,-0.2 -0.2,-0.2c-1.956,0 -17.644,0 -19.6,0c-0.11,0 -0.2,0.089 -0.2,0.2c0,4.246 0,74.726 0,78.972c0,0.11 0.09,0.2 0.2,0.2c1.956,0 17.644,0 19.6,0c0.11,0 0.2,-0.09 0.2,-0.2c0,-4.246 0,-74.726 0,-78.972Z" style="fill:#f5fe64;"/><path d="M14.113,6c0.108,0 0.197,0.086 0.201,0.194c0.011,0.485 0.035,1.852 -0.006,3.806c-0.053,2.468 3.692,6.628 3.692,6.628l-16,0c0,0 3.661,-4.16 3.692,-6.628c0.025,-1.941 0.011,-3.303 0.004,-3.796c-0.001,-0.054 0.019,-0.106 0.057,-0.144c0.038,-0.038 0.089,-0.06 0.143,-0.06c1.173,0 7.068,0 8.217,0Z"/><path d="M7,6c0,0 0,-1.478 0,-1.893c0,-0.067 0.033,-0.129 0.089,-0.166c0.634,-0.423 4.473,-2.982 5.6,-3.734c0.061,-0.041 0.14,-0.044 0.205,-0.01c0.065,0.035 0.106,0.103 0.106,0.177c0,1.311 0,5.626 0,5.626l-6,0Z" style="fill:#f5fe64;"/></g></svg>